# xmcd
#
# Track frame offsets: 
#        150
#        17198
#        34813
#        63817
#        104804
#        137053
#        152739
#        175513
#        196336
#        214377
#        239641
#        264152
#        290691
#        311255
#        336051
#
# Disc length: 4768 seconds
#
# Revision: 1
# Processed by: cddbd v1.5.2PL0 Copyright (c) Steve Scherf et al.
# Submitted via: ExactAudioCopy v0.95b4
#
DISCID=da129e0f
DTITLE=Various Artist - Indiarama [CD1 - Lounge and Zen)
DYEAR=2007
DGENRE=Indie
TTITLE0=Thievery Corporation - Satyam Shivam Sundaram
TTITLE1=Ravi Shankar - Variation On Genesis Theme On Sitar
TTITLE2=Raghunath Manet - Venkata
TTITLE3=Talvin Singh feat. Rakesh Chaurasia - Meeting
TTITLE4=John Mc Laughlin - Peace One
TTITLE5=Lata Mangeshkar - Thada Reshal Lagta Hai
TTITLE6=Music Ensemble Of Benares - Tarana
TTITLE7=Jah Wobble and The Invaders Of The Heart - Waxing Moon
TTITLE8=Poumi Lescaut - Sat Narayan
TTITLE9=Bombay Dub Orchestra - Feel (Thievery Corporation Remix)
TTITLE10=Up, Bustle and Out - The Hand Of Contreband
TTITLE11=Deja-Move - On Maija
TTITLE12=Raghunath Manet - Pondywood
TTITLE13=Bad Marsh - Let It Roll
TTITLE14=LTJ Xperience - Sitar Madness
EXTD=Compilation of Indian Music
EXTT0=
EXTT1=
EXTT2=
EXTT3=
EXTT4=
EXTT5=
EXTT6=
EXTT7=
EXTT8=
EXTT9=
EXTT10=
EXTT11=
EXTT12=
EXTT13=
EXTT14=
PLAYORDER=
